<svg xmlns="http://www.w3.org/2000/svg" viewBox="0 0 24 24" width="32px" height="32px">
  <path d="M12 2C6.477 2 2 6.477 2 12c0 4.418 2.865 8.166 6.839 9.489.5.092.682-.217.682-.482 0-.237-.008-.866-.013-1.7-2.782.603-3.369-1.34-3.369-1.34-.454-1.156-1.11-1.464-1.11-1.464-.908-.62.069-.608.069-.608 1.003.07 1.531 1.03 1.531 1.03.892 1.529 2.341 1.088 2.912.832.091-.647.349-1.088.635-1.338-2.22-.253-4.555-1.11-4.555-4.943 0-1.091.39-1.984 1.03-2.682-.103-.253-.447-1.27.098-2.646 0 0 .84-.269 2.75 1.025A9.548 9.548 0 0112 6.836c.85.004 1.705.115 2.504.337 1.909-1.294 2.747-1.025 2.747-1.025.547 1.376.203 2.393.1 2.646.64.698 1.028 1.591 1.028 2.682 0 3.842-2.337 4.687-4.565 4.935.359.309.678.92.678 1.855 0 1.338-.012 2.419-.012 2.747 0 .267.18.577.688.48C19.137 20.164 22 16.418 22 12c0-5.523-4.477-10-10-10z"/>
</svg>